<svg xmlns="http://www.w3.org/2000/svg" xmlns:xlink="http://www.w3.org/1999/xlink" version="1.1"
    x="0px" y="0px" viewBox="0 0 100 100" enable-background="new 0 0 100 100" xml:space="preserve"><g><path fill="#FFFFFF" d="M40.268,27.232c0-7.811,6.332-14.142,14.141-14.142c7.813,0,14.145,6.331,14.145,14.142   c0,7.812-6.331,14.144-14.145,14.144C46.6,41.376,40.268,35.045,40.268,27.232z M23.537,39.702c5.682,0,10.288-4.61,10.288-10.291   c0-5.682-4.606-10.29-10.288-10.29c-5.681,0-10.287,4.608-10.287,10.29C13.25,35.092,17.855,39.702,23.537,39.702z M90.596,68.153   l-8.263-0.04l-0.042-8.527c-0.011-1.947-1.582-3.534-3.525-3.542c-0.932,0-1.807,0.362-2.463,1.026   c-0.668,0.67-1.033,1.566-1.03,2.519l0.043,8.491l-8.51-0.043c-0.95,0-1.841,0.372-2.506,1.041   c-0.659,0.661-1.021,1.539-1.02,2.473c0.013,1.924,1.601,3.496,3.544,3.507l8.525,0.04l0.04,8.27   c0.013,1.943,1.584,3.531,3.509,3.54h0.013c0.935,0,1.811-0.366,2.469-1.029c0.666-0.673,1.031-1.562,1.028-2.517l-0.04-8.229   l8.242,0.042c0.953,0,1.845-0.367,2.514-1.039c0.659-0.663,1.018-1.541,1.012-2.475C94.126,69.736,92.535,68.165,90.596,68.153z    M71.302,64.066l-0.021-4.458c-0.007-1.546,0.447-3.02,1.292-4.264c-4.45-5.009-10.938-8.168-18.164-8.168   c-5.915,0-11.337,2.118-15.55,5.636c-3.05-5.309-8.762-8.892-15.322-8.892c-9.759,0-17.673,7.912-17.673,17.673h26.354   c-1.346,3.018-2.103,6.358-2.103,9.884h29.182c0.015-1.969,0.78-3.815,2.176-5.22c1.423-1.425,3.317-2.211,5.353-2.211   L71.302,64.066z"/></g>   </svg>