<?xml version="1.0" encoding="UTF-8" standalone="no" ?>
<!DOCTYPE svg PUBLIC "-//W3C//DTD SVG 1.1//EN" "http://www.w3.org/Graphics/SVG/1.1/DTD/svg11.dtd">
<svg xmlns="http://www.w3.org/2000/svg" xmlns:xlink="http://www.w3.org/1999/xlink" version="1.1" width="300" height="300" viewBox="0 0 300 300" xml:space="preserve">
<desc>Created with Fabric.js 5.2.4</desc>
<defs>
</defs>
<g transform="matrix(0 0 0 0 0 0)" id="20a0a1e6-7e42-422f-ae37-125d57879caf"  >
</g>
<g transform="matrix(1 0 0 1 150 150)" id="773b716c-6722-4baf-a271-22d88012edd2"  >
<rect style="stroke: none; stroke-width: 1; stroke-dasharray: none; stroke-linecap: butt; stroke-dashoffset: 0; stroke-linejoin: miter; stroke-miterlimit: 4; fill: rgb(255,255,255); fill-rule: nonzero; opacity: 1; visibility: hidden;" vector-effect="non-scaling-stroke"  x="-150" y="-150" rx="0" ry="0" width="300" height="300" />
</g>
<g transform="matrix(0.91 0 0 0.91 50.23 50.23)"  >
<rect style="stroke: none; stroke-width: 1; stroke-dasharray: none; stroke-linecap: butt; stroke-dashoffset: 0; stroke-linejoin: miter; stroke-miterlimit: 4; fill: rgb(255,255,255); fill-opacity: 0; fill-rule: nonzero; opacity: 1;" vector-effect="non-scaling-stroke"  x="-50" y="-50" rx="0" ry="0" width="100" height="100" />
</g>
<g transform="matrix(0.91 0 0 0.91 150.33 150.33)"  >
<rect style="stroke: none; stroke-width: 1; stroke-dasharray: none; stroke-linecap: butt; stroke-dashoffset: 0; stroke-linejoin: miter; stroke-miterlimit: 4; fill: rgb(255,255,255); fill-rule: nonzero; opacity: 1; visibility: hidden;" vector-effect="non-scaling-stroke"  x="-160" y="-160" rx="0" ry="0" width="320" height="320" />
</g>
<g transform="matrix(1.98 0 0 1.98 120.67 283.41)"  >
<path style="stroke: none; stroke-width: 1; stroke-dasharray: none; stroke-linecap: butt; stroke-dashoffset: 0; stroke-linejoin: miter; stroke-miterlimit: 4; fill: rgb(212,23,113); fill-rule: nonzero; opacity: 1;" vector-effect="non-scaling-stroke"  transform=" translate(-115.08, -174.39)" d="M 113.399994 177 C 112.927055 176.52037 112.8228 176.043106 112.786674 175.560715 C 112.642723 173.638428 112.879219 171.56839 115.300369 171.79834 C 118.212318 172.074905 117.350761 174.487656 117.062981 176.68219 C 115.933327 177 114.866661 177 113.399994 177 z" stroke-linecap="round" />
</g>
<g transform="matrix(1.98 0 0 1.98 265.63 124.03)"  >
<path style="stroke: none; stroke-width: 1; stroke-dasharray: none; stroke-linecap: butt; stroke-dashoffset: 0; stroke-linejoin: miter; stroke-miterlimit: 4; fill: rgb(212,23,113); fill-rule: nonzero; opacity: 1;" vector-effect="non-scaling-stroke"  transform=" translate(-187.81, -93.36)" d="M 194.898071 100.891983 C 190.470825 104.284599 186.080872 104.736458 181.734039 101.818192 C 177.857697 99.215805 176.909348 95.212662 177.728394 90.846397 C 178.557602 86.42598 181.658554 83.964783 185.853195 83.189339 C 190.050064 82.413483 193.759995 83.688782 196.232162 87.402603 C 199.321609 92.043709 198.586517 96.463142 194.898071 100.891983 z" stroke-linecap="round" />
</g>
<g transform="matrix(1.98 0 0 1.98 122.71 35.92)"  >
<path style="stroke: none; stroke-width: 1; stroke-dasharray: none; stroke-linecap: butt; stroke-dashoffset: 0; stroke-linejoin: miter; stroke-miterlimit: 4; fill: rgb(143,35,144); fill-rule: nonzero; opacity: 1;" vector-effect="non-scaling-stroke"  transform=" translate(-116.09, -49.35)" d="M 105.747177 50.700798 C 106.013008 44.19981 108.292969 40.763718 113.242592 39.440491 C 117.614655 38.271667 121.579193 39.271858 124.235268 43.050213 C 126.916679 46.864597 127.280342 51.101059 124.633949 55.162941 C 122.365196 58.645206 119.048859 60.152714 114.859062 59.613262 C 109.781334 58.95948 106.886536 55.998737 105.747177 50.700798 z" stroke-linecap="round" />
</g>
<g transform="matrix(1.98 0 0 1.98 35.85 175.96)"  >
<path style="stroke: none; stroke-width: 1; stroke-dasharray: none; stroke-linecap: butt; stroke-dashoffset: 0; stroke-linejoin: miter; stroke-miterlimit: 4; fill: rgb(212,23,113); fill-rule: nonzero; opacity: 1;" vector-effect="non-scaling-stroke"  transform=" translate(-72.22, -120.1)" d="M 63.814953 114.013168 C 69.626625 108.671669 75.600807 108.412621 79.829369 113.009247 C 83.800697 117.326248 83.343018 124.153351 78.816956 128.11113 C 75.332565 131.158035 69.2043 131.21817 65.482162 128.241989 C 61.433266 125.004547 60.754311 120.026703 63.814953 114.013168 z" stroke-linecap="round" />
</g>
<g transform="matrix(1.98 0 0 1.98 178.03 262.84)"  >
<path style="stroke: none; stroke-width: 1; stroke-dasharray: none; stroke-linecap: butt; stroke-dashoffset: 0; stroke-linejoin: miter; stroke-miterlimit: 4; fill: rgb(143,35,144); fill-rule: nonzero; opacity: 1;" vector-effect="non-scaling-stroke"  transform=" translate(-144.06, -164)" d="M 135.591278 157.842377 C 140.638702 153.074554 145.592941 152.402954 150.063309 155.57753 C 153.93367 158.326019 155.406723 163.615463 153.508392 167.948044 C 151.043991 173.572617 145.008163 175.889893 139.465485 173.339401 C 133.732162 170.701187 132.152817 164.857071 135.591278 157.842377 z" stroke-linecap="round" />
</g>
<g transform="matrix(1.98 0 0 1.98 255.11 170.01)"  >
<path style="stroke: none; stroke-width: 1; stroke-dasharray: none; stroke-linecap: butt; stroke-dashoffset: 0; stroke-linejoin: miter; stroke-miterlimit: 4; fill: rgb(212,23,113); fill-rule: nonzero; opacity: 1;" vector-effect="non-scaling-stroke"  transform=" translate(-182.5, -117.6)" d="M 190.413971 113.963997 C 192.249069 118.991142 190.551285 122.466667 186.608307 124.956657 C 182.972076 127.25293 179.396469 126.335594 176.582077 123.589127 C 173.757294 120.832504 172.991989 117.28508 174.874207 113.526138 C 177.404953 108.472069 186.503952 106.267067 190.413971 113.963997 z" stroke-linecap="round" />
</g>
<g transform="matrix(1.98 0 0 1.98 254.33 76.13)"  >
<path style="stroke: none; stroke-width: 1; stroke-dasharray: none; stroke-linecap: butt; stroke-dashoffset: 0; stroke-linejoin: miter; stroke-miterlimit: 4; fill: rgb(212,23,113); fill-rule: nonzero; opacity: 1;" vector-effect="non-scaling-stroke"  transform=" translate(-182.61, -69.66)" d="M 188.666885 75.678719 C 183.15274 79.530312 177.90004 78.798843 175.042267 74.115929 C 172.605942 70.123611 174.327469 64.302261 178.58548 62.134548 C 182.983063 59.895786 188.301102 61.687195 190.433197 66.14695 C 192.065521 69.561325 191.313995 72.60788 188.666885 75.678719 z" stroke-linecap="round" />
</g>
<g transform="matrix(1.98 0 0 1.98 224.49 252.54)"  >
<path style="stroke: none; stroke-width: 1; stroke-dasharray: none; stroke-linecap: butt; stroke-dashoffset: 0; stroke-linejoin: miter; stroke-miterlimit: 4; fill: rgb(143,35,144); fill-rule: nonzero; opacity: 1;" vector-effect="non-scaling-stroke"  transform=" translate(-167.53, -158.79)" d="M 158.880493 158.215363 C 159.855331 153.692642 162.220139 150.849548 166.511688 150.301926 C 169.829361 149.878586 172.80162 151.008163 174.638016 154.01181 C 176.615524 157.246231 176.839005 160.483917 174.464966 163.770004 C 172.238327 166.852081 169.258957 167.894363 165.757736 167.126801 C 161.328125 166.155716 159.007675 163.190475 158.880493 158.215363 z" stroke-linecap="round" />
</g>
<g transform="matrix(1.98 0 0 1.98 46.76 222.76)"  >
<path style="stroke: none; stroke-width: 1; stroke-dasharray: none; stroke-linecap: butt; stroke-dashoffset: 0; stroke-linejoin: miter; stroke-miterlimit: 4; fill: rgb(212,23,113); fill-rule: nonzero; opacity: 1;" vector-effect="non-scaling-stroke"  transform=" translate(-77.23, -143.75)" d="M 85.531082 146.237244 C 82.593697 151.593521 79.420006 153.266068 74.985207 151.979828 C 70.711296 150.74028 68.736404 147.59938 68.820885 143.386139 C 68.914368 138.723297 71.863976 136.180267 76.223541 135.294098 C 82.164162 134.086533 86.387939 138.876083 85.531082 146.237244 z" stroke-linecap="round" />
</g>
<g transform="matrix(1.98 0 0 1.98 129.59 252.5)"  >
<path style="stroke: none; stroke-width: 1; stroke-dasharray: none; stroke-linecap: butt; stroke-dashoffset: 0; stroke-linejoin: miter; stroke-miterlimit: 4; fill: rgb(143,35,144); fill-rule: nonzero; opacity: 1;" vector-effect="non-scaling-stroke"  transform=" translate(-119.59, -158.77)" d="M 127.500961 154.969147 C 128.97374 161.658051 126.545944 166.226608 121.375031 167.207733 C 116.721718 168.090652 112.464233 165.212128 111.474815 160.411987 C 110.587013 156.104828 112.303703 152.754593 116.160507 151.069382 C 120.640419 149.111908 124.560295 150.387894 127.500961 154.969147 z" stroke-linecap="round" />
</g>
<g transform="matrix(1.98 0 0 1.98 170.34 46.43)"  >
<path style="stroke: none; stroke-width: 1; stroke-dasharray: none; stroke-linecap: butt; stroke-dashoffset: 0; stroke-linejoin: miter; stroke-miterlimit: 4; fill: rgb(143,35,144); fill-rule: nonzero; opacity: 1;" vector-effect="non-scaling-stroke"  transform=" translate(-140.17, -54.66)" d="M 140.047852 63.27346 C 135.499741 62.644939 132.440674 60.683693 131.786316 56.27634 C 131.233841 52.555382 132.365601 49.417957 135.783737 47.375099 C 139.17868 45.346096 142.451675 45.705311 145.484482 48.021858 C 148.231842 50.12035 149.185974 53.068466 148.456238 56.395275 C 147.530823 60.614208 144.715714 62.835644 140.047852 63.27346 z" stroke-linecap="round" />
</g>
<g transform="matrix(1.98 0 0 1.98 45.68 128.19)"  >
<path style="stroke: none; stroke-width: 1; stroke-dasharray: none; stroke-linecap: butt; stroke-dashoffset: 0; stroke-linejoin: miter; stroke-miterlimit: 4; fill: rgb(212,23,113); fill-rule: nonzero; opacity: 1;" vector-effect="non-scaling-stroke"  transform=" translate(-77.19, -95.97)" d="M 85.597488 93.689896 C 86.070175 99.62812 84.124603 103.217857 79.910873 104.119843 C 75.931419 104.971687 72.269745 104.376907 70.050194 100.37104 C 67.8274 96.359329 68.363419 92.674423 71.729294 89.59111 C 76.062248 85.621887 82.472061 87.414047 85.597488 93.689896 z" stroke-linecap="round" />
</g>
<g transform="matrix(1.98 0 0 1.98 75.75 46.55)"  >
<path style="stroke: none; stroke-width: 1; stroke-dasharray: none; stroke-linecap: butt; stroke-dashoffset: 0; stroke-linejoin: miter; stroke-miterlimit: 4; fill: rgb(143,35,144); fill-rule: nonzero; opacity: 1;" vector-effect="non-scaling-stroke"  transform=" translate(-92.38, -54.72)" d="M 97.845047 48.093216 C 100.941772 51.416485 102.122353 54.797825 99.907303 58.708523 C 98.119797 61.864388 95.407051 63.548225 91.733337 63.233822 C 88.09906 62.922787 85.607826 60.920643 84.31839 57.520878 C 82.989799 54.017857 83.87294 50.894421 86.599167 48.521347 C 89.97068 45.586578 93.726303 45.36237 97.845047 48.093216 z" stroke-linecap="round" />
</g>
<g transform="matrix(1.98 0 0 1.98 97.47 225.43)"  >
<path style="stroke: none; stroke-width: 1; stroke-dasharray: none; stroke-linecap: butt; stroke-dashoffset: 0; stroke-linejoin: miter; stroke-miterlimit: 4; fill: rgb(143,35,144); fill-rule: nonzero; opacity: 1;" vector-effect="non-scaling-stroke"  transform=" translate(-102.85, -146.11)" d="M 99.253098 141.141541 C 103.113808 138.850128 105.996758 139.786285 108.047493 143.081757 C 109.932983 146.11171 109.034538 148.891159 106.326157 150.915512 C 103.798836 152.80455 100.937943 152.919586 98.648361 150.585861 C 95.689499 147.569946 96.134575 144.370087 99.253098 141.141541 z" stroke-linecap="round" />
</g>
<g transform="matrix(1.98 0 0 1.98 71.2 257.22)"  >
<path style="stroke: none; stroke-width: 1; stroke-dasharray: none; stroke-linecap: butt; stroke-dashoffset: 0; stroke-linejoin: miter; stroke-miterlimit: 4; fill: rgb(212,23,113); fill-rule: nonzero; opacity: 1;" vector-effect="non-scaling-stroke"  transform=" translate(-90.07, -161.16)" d="M 93.780136 156.078094 C 96.45237 158.766159 97.098534 161.516327 95.09568 164.401138 C 93.56884 166.600311 91.404823 167.665741 88.617188 166.832916 C 85.1064 165.784027 83.125504 162.391571 84.153671 159.137421 C 85.330292 155.413391 88.784271 154.18866 93.780136 156.078094 z" stroke-linecap="round" />
</g>
<g transform="matrix(1.98 0 0 1.98 71.3 94.81)"  >
<path style="stroke: none; stroke-width: 1; stroke-dasharray: none; stroke-linecap: butt; stroke-dashoffset: 0; stroke-linejoin: miter; stroke-miterlimit: 4; fill: rgb(212,23,113); fill-rule: nonzero; opacity: 1;" vector-effect="non-scaling-stroke"  transform=" translate(-90.13, -79.1)" d="M 84.089317 77.407288 C 85.600647 74.262062 87.778923 72.606506 90.941162 73.019371 C 93.396698 73.339958 95.16011 74.867508 95.946587 77.293678 C 96.751823 79.777702 95.941742 81.904831 94.115143 83.579758 C 92.262505 85.278572 90.027786 85.747696 87.677971 84.673088 C 84.744843 83.331726 83.68782 80.903435 84.089317 77.407288 z" stroke-linecap="round" />
</g>
<g transform="matrix(1.98 0 0 1.98 229.11 204.37)"  >
<path style="stroke: none; stroke-width: 1; stroke-dasharray: none; stroke-linecap: butt; stroke-dashoffset: 0; stroke-linejoin: miter; stroke-miterlimit: 4; fill: rgb(212,23,113); fill-rule: nonzero; opacity: 1;" vector-effect="non-scaling-stroke"  transform=" translate(-169.87, -134.46)" d="M 169.248367 128.547302 C 173.869339 128.322296 175.887741 130.904083 175.948059 134.607849 C 175.997726 137.656067 174.016052 139.876602 170.717056 140.30574 C 167.205719 140.762482 164.749329 139.181519 163.998795 135.804306 C 163.138641 131.933945 164.824768 129.353455 169.248367 128.547302 z" stroke-linecap="round" />
</g>
<g transform="matrix(1.98 0 0 1.98 258.52 227.3)"  >
<path style="stroke: none; stroke-width: 1; stroke-dasharray: none; stroke-linecap: butt; stroke-dashoffset: 0; stroke-linejoin: miter; stroke-miterlimit: 4; fill: rgb(143,35,144); fill-rule: nonzero; opacity: 1;" vector-effect="non-scaling-stroke"  transform=" translate(-184.73, -146.04)" d="M 190.760498 146.011292 C 190.147385 150.231781 187.871826 152.388718 184.014053 152.10994 C 180.877472 151.88327 178.978622 149.867249 178.720932 146.592896 C 178.464874 143.339264 179.959137 141.016174 183.020782 140.229782 C 187.457611 139.090164 189.82428 141.461685 190.760498 146.011292 z" stroke-linecap="round" />
</g>
<g transform="matrix(1.98 0 0 1.98 229.17 42.67)"  >
<path style="stroke: none; stroke-width: 1; stroke-dasharray: none; stroke-linecap: butt; stroke-dashoffset: 0; stroke-linejoin: miter; stroke-miterlimit: 4; fill: rgb(212,23,113); fill-rule: nonzero; opacity: 1;" vector-effect="non-scaling-stroke"  transform=" translate(-169.9, -52.76)" d="M 174.921936 49.070728 C 176.810867 52.332283 176.126328 54.876495 173.788727 57.045979 C 171.702957 58.981731 169.194397 59.022881 166.799408 57.889645 C 164.436874 56.771763 163.658569 54.486923 163.80246 52.029758 C 164.113739 46.715057 169.408493 45.139614 174.921936 49.070728 z" stroke-linecap="round" />
</g>
<g transform="matrix(1.98 0 0 1.98 203.76 71.77)"  >
<path style="stroke: none; stroke-width: 1; stroke-dasharray: none; stroke-linecap: butt; stroke-dashoffset: 0; stroke-linejoin: miter; stroke-miterlimit: 4; fill: rgb(143,35,144); fill-rule: nonzero; opacity: 1;" vector-effect="non-scaling-stroke"  transform=" translate(-157.06, -67.46)" d="M 162.666565 64.776085 C 163.938797 68.691185 162.931656 71.527481 159.466049 72.911423 C 156.830566 73.963882 154.214294 73.461319 152.282379 71.029472 C 150.483841 68.765526 150.550842 66.395149 152.017868 64.072975 C 154.313553 60.439137 158.678375 60.618195 162.666565 64.776085 z" stroke-linecap="round" />
</g>
<g transform="matrix(1.98 0 0 1.98 41.6 71.65)"  >
<path style="stroke: none; stroke-width: 1; stroke-dasharray: none; stroke-linecap: butt; stroke-dashoffset: 0; stroke-linejoin: miter; stroke-miterlimit: 4; fill: rgb(143,35,144); fill-rule: nonzero; opacity: 1;" vector-effect="non-scaling-stroke"  transform=" translate(-75.13, -67.4)" d="M 81.049667 65.476425 C 81.640839 69.203522 80.64267 71.93718 77.31543 73.026672 C 74.673141 73.891876 71.96608 73.555077 70.292259 70.861542 C 68.341064 67.721649 68.58448 64.645943 71.765564 62.615223 C 75.470032 60.250401 78.703789 61.193947 81.049667 65.476425 z" stroke-linecap="round" />
</g>
<g transform="matrix(1.98 0 0 1.98 200.92 222.19)"  >
<path style="stroke: none; stroke-width: 1; stroke-dasharray: none; stroke-linecap: butt; stroke-dashoffset: 0; stroke-linejoin: miter; stroke-miterlimit: 4; fill: rgb(212,23,113); fill-rule: nonzero; opacity: 1;" vector-effect="non-scaling-stroke"  transform=" translate(-155.62, -143.48)" d="M 152.100372 142.325165 C 153.634171 139.859802 155.384857 139.041031 157.625854 140.623779 C 158.93721 141.549957 159.520203 142.924667 159.078049 144.514938 C 158.571411 146.337128 157.164276 147.266769 155.375885 147.124191 C 152.776428 146.916931 151.716248 145.25029 152.100372 142.325165 z" stroke-linecap="round" />
</g>
<g transform="matrix(1.98 0 0 1.98 78.15 199.46)"  >
<path style="stroke: none; stroke-width: 1; stroke-dasharray: none; stroke-linecap: butt; stroke-dashoffset: 0; stroke-linejoin: miter; stroke-miterlimit: 4; fill: rgb(143,35,144); fill-rule: nonzero; opacity: 1;" vector-effect="non-scaling-stroke"  transform=" translate(-93.6, -131.98)" d="M 89.966675 132.751099 C 89.879539 129.794601 91.225403 128.358429 93.728859 128.268951 C 95.571419 128.203064 96.808731 129.319336 97.152908 131.141663 C 97.488434 132.918167 96.856155 134.42836 95.191612 135.221802 C 92.796318 136.363556 91.124657 135.39859 89.966675 132.751099 z" stroke-linecap="round" />
</g>
<g transform="matrix(1.98 0 0 1.98 22.5 99.52)"  >
<path style="stroke: none; stroke-width: 1; stroke-dasharray: none; stroke-linecap: butt; stroke-dashoffset: 0; stroke-linejoin: miter; stroke-miterlimit: 4; fill: rgb(143,35,144); fill-rule: nonzero; opacity: 1;" vector-effect="non-scaling-stroke"  transform=" translate(-65.48, -81.5)" d="M 68.157219 84.163406 C 65.653786 85.754753 63.69997 85.616249 62.294151 83.313553 C 61.420525 81.882576 61.658043 80.394814 62.763046 79.166 C 64.004021 77.78598 65.597336 77.281563 67.23613 78.323143 C 69.408165 79.703629 69.865936 81.625511 68.157219 84.163406 z" stroke-linecap="round" />
</g>
<g transform="matrix(1.98 0 0 1.98 277.7 199.42)"  >
<path style="stroke: none; stroke-width: 1; stroke-dasharray: none; stroke-linecap: butt; stroke-dashoffset: 0; stroke-linejoin: miter; stroke-miterlimit: 4; fill: rgb(143,35,144); fill-rule: nonzero; opacity: 1;" vector-effect="non-scaling-stroke"  transform=" translate(-194.42, -131.96)" d="M 190.784119 131.942123 C 191.189636 129.225906 192.525665 127.895798 194.916031 128.282532 C 196.695053 128.570343 197.95433 129.830231 198.048752 131.694077 C 198.140518 133.505432 197.222229 134.992813 195.418518 135.503723 C 192.735138 136.263763 191.379349 134.792526 190.784119 131.942123 z" stroke-linecap="round" />
</g>
<g transform="matrix(1.98 0 0 1.98 200.66 22.55)"  >
<path style="stroke: none; stroke-width: 1; stroke-dasharray: none; stroke-linecap: butt; stroke-dashoffset: 0; stroke-linejoin: miter; stroke-miterlimit: 4; fill: rgb(212,23,113); fill-rule: nonzero; opacity: 1;" vector-effect="non-scaling-stroke"  transform=" translate(-155.48, -42.61)" d="M 154.38028 46.240211 C 151.859375 44.832325 151.085602 42.970707 152.426086 40.768562 C 153.317291 39.304482 154.898621 38.530716 156.682526 39.138218 C 158.421432 39.730396 159.310852 41.119637 159.179672 42.948116 C 158.984528 45.668438 157.211441 46.494091 154.38028 46.240211 z" stroke-linecap="round" />
</g>
<g transform="matrix(1.98 0 0 1.98 99.62 76.32)"  >
<path style="stroke: none; stroke-width: 1; stroke-dasharray: none; stroke-linecap: butt; stroke-dashoffset: 0; stroke-linejoin: miter; stroke-miterlimit: 4; fill: rgb(212,23,113); fill-rule: nonzero; opacity: 1;" vector-effect="non-scaling-stroke"  transform=" translate(-104.44, -69.76)" d="M 102.621933 73.04792 C 100.389862 71.128357 100.10318 69.173904 101.896774 67.262375 C 103.17028 65.905136 104.805664 65.807625 106.414436 66.828606 C 107.8162 67.718224 108.497856 68.982689 107.993286 70.623291 C 107.215218 73.15316 105.435516 73.898216 102.621933 73.04792 z" stroke-linecap="round" />
</g>
<g transform="matrix(1.98 0 0 1.98 222.11 99.56)"  >
<path style="stroke: none; stroke-width: 1; stroke-dasharray: none; stroke-linecap: butt; stroke-dashoffset: 0; stroke-linejoin: miter; stroke-miterlimit: 4; fill: rgb(143,35,144); fill-rule: nonzero; opacity: 1;" vector-effect="non-scaling-stroke"  transform=" translate(-166.33, -81.5)" d="M 165.963257 85.16304 C 162.894547 84.424797 162.2556 82.580498 163.015594 80.204811 C 163.504578 78.6763 164.76062 77.813988 166.415909 77.840897 C 168.337875 77.872131 169.56395 79.062767 169.858887 80.799744 C 170.294312 83.36412 168.893616 84.796501 165.963257 85.16304 z" stroke-linecap="round" />
</g>
<g transform="matrix(1.98 0 0 1.98 99.61 276.17)"  >
<path style="stroke: none; stroke-width: 1; stroke-dasharray: none; stroke-linecap: butt; stroke-dashoffset: 0; stroke-linejoin: miter; stroke-miterlimit: 4; fill: rgb(212,23,113); fill-rule: nonzero; opacity: 1;" vector-effect="non-scaling-stroke"  transform=" translate(-104.44, -170.75)" d="M 106.331551 167.648849 C 108.301247 169.458038 108.831741 171.219055 107.181503 173.053207 C 105.783676 174.606842 104.007538 174.699753 102.269211 173.6483 C 100.814133 172.768173 100.402237 171.244751 100.934486 169.769363 C 101.779083 167.428085 103.507256 166.475372 106.331551 167.648849 z" stroke-linecap="round" />
</g>
<g transform="matrix(1.98 0 0 1.98 228.78 120.91)"  >
<path style="stroke: none; stroke-width: 1; stroke-dasharray: none; stroke-linecap: butt; stroke-dashoffset: 0; stroke-linejoin: miter; stroke-miterlimit: 4; fill: rgb(143,35,144); fill-rule: nonzero; opacity: 1;" vector-effect="non-scaling-stroke"  transform=" translate(-169.7, -92.29)" d="M 170.667358 94.57901 C 167.958893 94.970451 166.833252 93.953781 167.548462 91.572075 C 167.916565 90.346268 169.084 89.561356 170.295334 90.089729 C 172.515457 91.058113 172.650909 92.643646 170.667358 94.57901 z" stroke-linecap="round" />
</g>
<g transform="matrix(1.98 0 0 1.98 15.78 121.26)"  >
<path style="stroke: none; stroke-width: 1; stroke-dasharray: none; stroke-linecap: butt; stroke-dashoffset: 0; stroke-linejoin: miter; stroke-miterlimit: 4; fill: rgb(143,35,144); fill-rule: nonzero; opacity: 1;" vector-effect="non-scaling-stroke"  transform=" translate(-62.07, -92.47)" d="M 59.610741 92.127014 C 60.631512 89.663383 62.118523 89.103828 63.788773 90.840851 C 64.99015 92.090256 64.706749 93.727371 63.233917 94.590012 C 61.049263 95.869553 59.940819 94.668938 59.610741 92.127014 z" stroke-linecap="round" />
</g>
<g transform="matrix(1.98 0 0 1.98 179.79 229.35)"  >
<path style="stroke: none; stroke-width: 1; stroke-dasharray: none; stroke-linecap: butt; stroke-dashoffset: 0; stroke-linejoin: miter; stroke-miterlimit: 4; fill: rgb(212,23,113); fill-rule: nonzero; opacity: 1;" vector-effect="non-scaling-stroke"  transform=" translate(-144.95, -147.08)" d="M 142.641724 148.246033 C 141.964203 145.181946 143.463852 144.394821 145.825134 144.751724 C 147.219299 144.962448 147.689072 146.182831 147.26622 147.356522 C 146.410217 149.732483 144.854858 150.250061 142.641724 148.246033 z" stroke-linecap="round" />
</g>
<g transform="matrix(1.98 0 0 1.98 120.94 69.84)"  >
<path style="stroke: none; stroke-width: 1; stroke-dasharray: none; stroke-linecap: butt; stroke-dashoffset: 0; stroke-linejoin: miter; stroke-miterlimit: 4; fill: rgb(212,23,113); fill-rule: nonzero; opacity: 1;" vector-effect="non-scaling-stroke"  transform=" translate(-115.22, -66.49)" d="M 114.914314 68.979019 C 112.464752 67.696648 112.242126 66.171471 114.026184 64.582214 C 115.034203 63.684261 116.30146 63.816864 116.993675 65.025787 C 118.11657 66.986862 117.743858 68.508598 114.914314 68.979019 z" stroke-linecap="round" />
</g>
<g transform="matrix(1.98 0 0 1.98 179.43 16.14)"  >
<path style="stroke: none; stroke-width: 1; stroke-dasharray: none; stroke-linecap: butt; stroke-dashoffset: 0; stroke-linejoin: miter; stroke-miterlimit: 4; fill: rgb(212,23,113); fill-rule: nonzero; opacity: 1;" vector-effect="non-scaling-stroke"  transform=" translate(-144.77, -39.36)" d="M 146.36026 41.077381 C 143.692734 42.5625 142.663361 41.340736 142.506912 39.145428 C 142.413177 37.830116 143.457642 36.885124 144.7005 36.992809 C 147.149323 37.204987 147.620041 38.709267 146.36026 41.077381 z" stroke-linecap="round" />
</g>
<g transform="matrix(1.98 0 0 1.98 285.47 177.15)"  >
<path style="stroke: none; stroke-width: 1; stroke-dasharray: none; stroke-linecap: butt; stroke-dashoffset: 0; stroke-linejoin: miter; stroke-miterlimit: 4; fill: rgb(212,23,113); fill-rule: nonzero; opacity: 1;" vector-effect="non-scaling-stroke"  transform=" translate(-197.84, -121.21)" d="M 197.447662 118.861786 C 200.142746 119.002174 200.682541 120.377235 199.789825 122.243073 C 199.098114 123.688751 197.542587 123.975243 196.444702 122.939766 C 194.979996 121.55838 195.117111 119.992981 197.447662 118.861786 z" stroke-linecap="round" />
</g>
<g transform="matrix(0 0 0 0 0 0)"  >
<g style=""   >
</g>
</g>
<g transform="matrix(0 0 0 0 0 0)"  >
<g style=""   >
</g>
</g>
<g transform="matrix(0 0 0 0 0 0)"  >
<g style=""   >
</g>
</g>
<g transform="matrix(0 0 0 0 0 0)"  >
<g style=""   >
</g>
</g>
<g transform="matrix(0 0 0 0 0 0)"  >
<g style=""   >
</g>
</g>
<g transform="matrix(0 0 0 0 0 0)"  >
<g style=""   >
</g>
</g>
<g transform="matrix(0 0 0 0 0 0)"  >
<g style=""   >
</g>
</g>
</svg>