<svg xmlns="http://www.w3.org/2000/svg" xmlns:xlink="http://www.w3.org/1999/xlink" version="1.1" width="256" height="256" viewBox="0 0 256 256" xml:space="preserve">

<defs>
</defs>
<g style="stroke: none; stroke-width: 0; stroke-dasharray: none; stroke-linecap: butt; stroke-linejoin: miter; stroke-miterlimit: 10; fill: none; fill-rule: nonzero; opacity: 1;" transform="translate(1.4065934065934016 1.4065934065934016) scale(2.81 2.81)" >
	<path d="M 45 90 C 20.1 90 0 69.9 0 45 S 20.1 0 45 0 s 45 20.1 45 45 S 69.9 90 45 90 z M 31.8 27.1 c 0 -0.8 -0.6 -1.4 -1.4 -1.4 H 20.1 v 30.1 h 10.2 c 0.8 0 1.4 -0.6 1.4 -1.4 V 27.1 z M 69.9 44.5 c 0 -2.1 -1.7 -3.8 -3.8 -3.8 H 65 c 2.1 0 3.8 -1.7 3.8 -3.8 s -1.7 -3.8 -3.8 -3.8 h -1.7 c 2.1 0 3.8 -1.7 3.8 -3.8 s -1.7 -3.8 -3.8 -3.8 h -12 v 0 h -1.8 c -3.6 -0.1 -7.4 0.8 -9.6 2.3 c -0.9 0.6 -1.9 1 -3 1 h -2 v 23.8 h 3.9 c 5 0.3 9.8 10.2 10.7 18.2 c 0.1 1 1 1.7 2 1.4 c 4.9 -1.4 4.9 -12.7 2.8 -16.5 h 11.9 c 2.1 0 3.8 -1.7 3.8 -3.8 s -1.7 -3.8 -3.8 -3.8 C 68.2 48.3 69.9 46.6 69.9 44.5 z" style="stroke: none; stroke-width: 1; stroke-dasharray: none; stroke-linecap: butt; stroke-linejoin: miter; stroke-miterlimit: 10; fill: rgb(0,0,0); fill-rule: nonzero; opacity: 1;" transform=" matrix(1 0 0 1 0 0) " stroke-linecap="round" />
</g>
</svg>